<svg width="27" height="35" viewBox="0 0 27 35" fill="currentColor" xmlns="http://www.w3.org/2000/svg">
<path d="M13.7539 0.0444336H13.6543L0.208984 1.44443V26.1444L13.6543 34.1444L27 26.1444V1.44443L13.7539 0.0444336ZM25.1077 12.1444L13.6543 5.34443V5.24443H13.5547L13.4551 5.14443V5.24443L2.10129 12.1444V3.14443L13.5547 1.94443L25.1077 3.14443V12.1444ZM13.5547 6.84443L25.0081 13.5444L20.5263 16.1444L13.4551 11.9444V13.3444L19.3312 16.8444L18.4349 17.3444L13.4551 14.3444V15.7444L17.2397 18.0444L16.443 18.5444L13.4551 16.7444V18.1444L15.3474 19.2444L13.5547 20.3444L2.20088 13.6444L13.5547 6.84443ZM2.10129 15.1444L13.4551 21.9444V22.9444L5.58711 18.2444V19.6444L13.5547 24.4444V25.5444L5.58711 20.8444V22.2444L13.5547 27.0444L21.6219 22.1444V16.9444L25.0081 14.9444V24.9444L13.5547 31.8444L2.10129 25.0444V15.1444Z"/>
</svg>
