<svg width="35" height="34" viewBox="0 0 35 34" fill="none" xmlns="http://www.w3.org/2000/svg"><path d="M.3 13.95c-.4 2.08-.4 4.16 0 6.24l4.18-3.17-4.17-3.07ZM24.85 1.59a17.96 17.96 0 0 0-15.58.4l7.64 5.53 7.94-5.93ZM34.53 13.06l-4.9 3.66 5 3.66c.5-2.37.5-4.94-.1-7.32ZM9.37 32.06a17.84 17.84 0 0 0 16 .1l-8.26-6.04-7.74 5.94ZM8.05 14.25 1.73 9.7c-.3.7-.61 1.38-.81 2.08l5.4 3.95 1.73-1.48ZM18.94 24.83l8.46 6.14c.3-.2.61-.4.81-.6.3-.2.61-.49.92-.79l-8.45-6.13-1.74 1.38ZM11.61 11.58 4.07 6.14c-.5.5-.91 1.09-1.32 1.68l7.03 5.14 1.83-1.38ZM22.5 22.16l8.26 6.04c.5-.5.92-1.09 1.32-1.68l-7.84-5.74-1.73 1.38ZM15.18 8.9 7.33 3.18c-.2.1-.4.3-.6.4-.42.3-.82.59-1.13.98l7.84 5.64 1.74-1.28ZM26.07 19.4l7.13 5.14c.3-.7.62-1.29.92-1.98L27.91 18l-1.84 1.38ZM26.89 2.67.92 22.37c.2.68.5 1.38.81 2.07l27-20.48c-.52-.5-1.13-.89-1.84-1.29ZM31.27 6.53c-.3-.4-.61-.79-.92-1.09L2.85 26.22c.2.5.51.89.82 1.19.1.2.3.4.4.5l27.7-20.78c-.2-.2-.3-.4-.5-.6ZM32.9 8.9 5.7 29.49c.51.5 1.12 1 1.74 1.39l26.48-19.98c-.3-.7-.61-1.39-1.02-1.98Z" fill="#63D1BB"/></svg>