<svg xmlns="http://www.w3.org/2000/svg" xmlns:xlink="http://www.w3.org/1999/xlink"><defs><clipPath id="a"><path fill="#fff" transform="translate(.741 .094)" d="M0 0h28v22H0z"/></clipPath></defs><symbol id="icon-basket"><path d="M20.188 6.857h-3.55L13.188.381C12.985 0 12.58-.095 12.174.095s-.507.572-.304.953l3.145 5.81H5.783l3.145-5.81c.202-.381 0-.762-.305-.953-.406-.19-.811 0-1.014.286l-3.45 6.476H.812c-.406 0-.812.286-.812.762 0 .381.304.762.812.762h.202l.914 2.857c-.203.095-.305.286-.305.572 0 .38.305.666.71.666L4.058 18h12.884l1.725-5.524c.405 0 .71-.286.71-.667 0-.19-.102-.476-.304-.57l.912-2.858h.203c.406 0 .812-.286.812-.762 0-.476-.406-.762-.812-.762Zm-4.565 9.62H5.073L3.854 12.38h13.087l-1.319 4.095Zm1.623-5.525H3.348l-.812-2.666h15.522l-.812 2.666Z"/></symbol><symbol id="icon-copyright-logo"><path d="M13.754.044h-.1L.21 1.444v24.7l13.445 8 13.346-8v-24.7L13.754.044Zm11.354 12.1-11.454-6.8v-.1h-.1l-.099-.1v.1l-11.354 6.9v-9l11.454-1.2 11.553 1.2v9Zm-11.553-5.3 11.453 6.7-4.482 2.6-7.07-4.2v1.4l5.875 3.5-.896.5-4.98-3v1.4l3.785 2.3-.797.5-2.988-1.8v1.4l1.892 1.1-1.792 1.1-11.354-6.7 11.354-6.8ZM2.1 15.144l11.354 6.8v1l-7.868-4.7v1.4l7.968 4.8v1.1l-7.968-4.7v1.4l7.968 4.8 8.067-4.9v-5.2l3.386-2v10l-11.453 6.9-11.454-6.8v-9.9Z"/></symbol><symbol id="icon-footer-logo"><path d="M19.22 21.5c-.1-2.7-.5-5.3-.5-8 0-2.2.4-4.4-.4-6.5 0-.2.1-.5.1-.7.2-1-3.3-.5-3.8.5-.3.3-.5.6-.4 1 0 .1.1.2.1.3-.7 3.2-1.6 6.3-2.6 9.4-.4 1.2-.9 2.3-1.3 3.5-.6-1.1-1.2-2.2-1.6-3.4-1.4-3.4-2.6-6.9-4.3-10.2.2-1.5-3.2-1.4-3.9 0-.8 1.7-.7 3.4-.4 5.2.3 2 .4 4 .4 6.1 0 4 .4 7.9.4 11.9-.4.4-.5.9-.1 1.4.2.2.4.4.6.5 1 .7 3.6.1 3.6-1.3 0-4.1-.3-8.2-.4-12.4v-1.2c.1.1.1.3.2.4.6 1.6 1.3 3.2 2.2 4.7.9 1.5 1.3 3.1 1.8 4.7-.2.2-.3.5-.2.7 0 .2.1.3.3.4.6.5 1.8.3 2.5 0 .3-.1.6-.3.8-.4.3-.2.9-.7.7-1.2 0-.1-.1-.2-.1-.3.5-1.3.7-2.6 1-3.9.3-1.4.8-2.8 1.3-4.1.1.6.1 1.2.2 1.9.2 2.6 0 5.1 0 7.6 0 .8.1 1.6.2 2.5.1.3.4 1.8.3 1.9-.8.5-.6 1.1.2 1.3.9.2 2.1-.1 2.8-.7 1.2-1.1.6-2.8.4-4.2-.5-2.4 0-5-.1-7.4ZM27.62 22.2c-.1-2-.8-3.9-.8-5.9 0-2.3.2-4.6-.2-6.9-.1-.7-4.1.1-3.9 1 .3 2.1.2 4.2.2 6.4 0 2 .5 3.9.7 5.9.3 2.1-.1 4.2.1 6.2.1 1 .8 2.7.1 3.6-.4.5 1.5.3 1.6.3.8-.1 1.8-.4 2.3-1 .7-.8.2-2.4.1-3.4-.3-2-.1-4.2-.2-6.2ZM43.92 18.9c-2.1-2.8-5.9-.8-8.6-1.5-1.4-.4-1.4-2.3-1.4-3.4 0-1.4-.1-2.7-.3-4.1-.1-1.1 0-2.1.7-2.9.1-.1.9-.3.8-.3.4-.1.7-.1 1.1-.1 1.5-.1 4.6.2 4 2.5-.3 1 3.6.4 3.9-.6 1.2-4.6-7.3-3.7-9.7-3.1-2.2.6-4.6 1.8-4.8 4.4-.1 1.2.3 2.4.3 3.6.1 1.4-.2 2.8.3 4.1 1.1 3 5.5 1.6 7.8 1.7 3.8.3 2.7 5.5 2.7 7.9 0 1.3 1.2 3.4.2 4.5-.6.7-2 .7-2.8.8-.8.1-2.2.3-2.7-.5-1-1.4.1-3.8-.1-5.4-.1-.9-4.1-.1-3.9 1 .3 2.6-1.4 6.1 2.4 6.6 2.4.3 5.2-.2 7.5-.9 1.2-.4 2.3-.9 3.2-1.8 1-.9.7-2.3.4-3.5-.5-3.1.9-6.5-1-9ZM61.32 18.7c-.1-3.8-.7-7.5-.7-11.3 0-2-4-1.3-4 .3 0 3.6.5 7.2.7 10.8v.2c-1.9 0-3.9.2-5.9.2.2-4.6-.6-9.2-.4-13.9 0-.6-3.9-.1-3.9 1-.2 4.5.6 8.9.5 13.4-.1 2.1-.2 4.3-.3 6.4 0 1.1.2 2.2.3 3.3.1 1 .5 2.3.2 3.3-.2.8 3.6.3 3.9-.7.5-1.8-.2-4-.4-5.8-.2-1.7 0-3.5.1-5.2 2-.1 4.1-.3 6.1 0 .1 1.4.2 2.8.3 4.1.1 1.2.2 2.3.2 3.5 0 1 .1 2.5-.2 3.5-.8 2.1 3.1 1.9 3.7.4.7-1.9.5-4.2.4-6.2-.2-2.5-.6-4.9-.6-7.3ZM78.22 23.1c-.9-2.8-2.4-5.2-3.6-7.8 1-1.9 2-3.9 2.9-5.9.8-1.8 1.4-3.8 3.1-5.1.6-.4.6-.9-.3-1-.9-.1-2.1.2-2.8.7-1.4 1.3-2.4 2.7-3.1 4.4-.9 2.1-1.9 4.1-2.9 6.1-.1.1-.1.3-.2.4-.5.3-.8.8-.6 1.3-.8 1.6-1.6 3.1-2.5 4.6-.3-5.5-1-11.1-1.2-16.6 0-1.3-4-.5-3.9 1 .2 6.9 1.2 13.7 1.3 20.6v.1c-.3.3-.2.5.1.6 0 1.8-.1 3.5-.2 5.3-.5.7.5 1.1 1.1 1.1h.1c.7 0 2.6-.3 2.7-1.4.2-2.1.3-4.2.2-6.3 1.6-1.7 2.9-3.6 4.1-5.6.8 1.5 1.5 3 2 4.6.9 2.7 2.3 5.3 3.1 8 .5 1.8 4.5.7 3.9-1-1-2.8-2.4-5.3-3.3-8.1ZM101.72 18.5c-.2-.8-1.4-.8-2.3-.8v-1c-.1-2.7-.2-5.4-.4-8-.2-2.5-1.6-3.3-4-3.2-2.4.1-5.2.5-7.5 1.4-2.6 1-4.1 2.9-4.6 5.7-.5 3 .2 6.2.4 9.2.2 3.5.1 7 .1 10.5 0 .6 3.9 0 3.9-1V23c0-.8-.1-1.6-.1-2.4 1.4-.6 3.7 0 5.1.1 1.1.1 2.2-.2 3.2-.3 0 2.3.1 4.6.2 6.9 0 1.2.5 3.5-.4 4.5-.4.5 1.5.3 1.6.3.8-.1 1.8-.4 2.3-1 .9-1.1.5-3.8.4-5.1-.1-1.9-.1-3.8-.1-5.7 1.1-.2 2.4-.9 2.2-1.8Zm-14.6-.1c-.1-1.2-.2-2.5-.3-3.7-.2-2.3.1-5.6 2.3-7 .6-.4 1.7-.3 2.4-.4 1-.2 2-.4 2.8.2 1.2.8.9 3.7.9 4.9 0 2 .2 4 .3 6-.6.1-1.1.1-1.7.1-2.3-.2-4.6-.6-6.7-.1ZM24.22 6.7c.5-.1 1-.2 1.5-.5l.2-.2c.5-.3 1-.8.7-1.4-.5-1.1-.4-2.2-.4-3.4 0-1-1-1.2-1.8-1.2-.7.1-2.2.6-2.2 1.5 0 1-.1 2 .1 3 0 .1-.1.2-.1.4-.1.2 0 .4.1.6v.4c.1.2.2.4.4.5.6.3 1.1.3 1.5.3Z"/></symbol><symbol id="icon-interior"><path d="M15.162 37.717c-.3.995-.2 2.19 0 3.582.499 2.588 1.696 5.971 2.394 9.654h5.087c.698-3.583 1.895-6.967 2.494-9.654.3-1.393.3-2.687 0-3.582-.3-.896-.898-1.593-1.995-2.29h-5.985c-1.197.697-1.796 1.394-1.995 2.29ZM26.933 57.621H13.167c-1.297 0-2.294.995-2.294 2.19V62h18.354v-2.19c0-1.194-.998-2.189-2.294-2.189ZM34.015 2.19h-11.67C22.344.994 21.346 0 20.05 0s-2.294.995-2.294 2.19H6.085L0 27.566c.798-.498 1.596-.995 2.594-.995 1.396 0 2.194.796 2.892 1.393.699.597 1.197.796 1.397.796.299 0 .798-.299 1.496-.796.698-.498 1.596-1.393 2.893-1.393 1.297 0 2.194.796 2.893 1.393.698.497 1.197.796 1.496.796.1 0 .3-.1.598-.199.2-.1.5-.398.898-.597.499-.398 1.097-.995 1.995-1.194.3-.1.599-.1.898-.1 1.297 0 2.194.796 2.893 1.393.698.498 1.197.797 1.496.797.3 0 .798-.299 1.396-.797.699-.597 1.596-1.393 2.893-1.393 1.397 0 2.195.796 2.893 1.393.3.299.598.498.898.598.2.1.399.199.598.199.3 0 .798-.299 1.397-.896.698-.597 1.596-1.393 2.892-1.393.998 0 1.796.497 2.594.995L34.015 2.189ZM23.442 53.143h-6.883c-.699 0-1.098.497-1.098 1.094 0 .597.5 1.095 1.098 1.095h6.883c.698 0 1.097-.498 1.097-1.095.1-.597-.4-1.094-1.098-1.094Z"/><path d="M20.05 28.76c-.1 0-.3.1-.599.199-.2.1-.399.298-.598.398v3.682h2.294v-3.583c-.499-.398-.898-.696-1.097-.696Z"/></symbol><symbol id="icon-letter"><path d="M28 0H4C1.8 0 0 1.8 0 4v13c0 2.2 1.8 4 4 4h24c2.2 0 4-1.8 4-4V4c0-2.2-1.8-4-4-4ZM2 5.3l7 5.3-7 5.3V5.3ZM30 17c0 1.1-.9 2-2 2H4c-1.1 0-2-.9-2-2l7.8-5.9 4.4 3.3c.5.4 1.2.6 1.8.6.6 0 1.3-.2 1.8-.6l4.4-3.3L30 17Zm0-1.2-7-5.3 7-5.3v10.6Zm-12.8-2.2c-.4.3-.8.4-1.2.4-.4 0-.9-.1-1.2-.4l-4.1-3.1-.8-.6L2 4c0-1.1.9-2 2-2h24c1.1 0 2 .9 2 2l-12.8 9.6Z"/></symbol><symbol id="icon-phone"><path d="M17.44 24h-1.11c-4.939-.593-8.568-2.864-11.189-5.728C2.521 15.408.403 11.753 0 6.716V5.333c.1-.888.504-1.481 1.109-2.074.605-.69 1.613-1.481 2.52-1.58.706 0 1.815.494 2.218 1.087.403.493.605 1.58.806 2.37.202.889.605 1.975.504 2.765-.201 1.186-1.814 1.68-2.217 2.568 1.612 3.655 4.133 6.42 7.56 8.198.806-.494 1.613-1.877 2.823-1.877.403 0 1.008.198 1.41.297.505.098.908.296 1.311.493.706.297 2.017.593 2.42 1.186.403.592.705 1.58.605 2.172-.303 1.284-2.42 2.667-3.63 3.062ZM12.6 1.481c5.948 0 10.888 4.741 10.888 10.667H25C25 5.432 19.456 0 12.6 0v1.481Z"/><path d="M12.6 9.185v1.58c.807 0 1.412.593 1.412 1.383h1.613c0-1.58-1.31-2.963-3.024-2.963ZM12.6 6.124c3.327 0 6.15 2.666 6.15 6.024h1.613c0-4.148-3.427-7.506-7.661-7.506v1.482H12.6Z"/></symbol><symbol id="icon-search"><path d="m17.693 16.057-3.477-3.477c1.023-1.33 1.534-2.966 1.534-4.705C15.75 3.477 12.273 0 7.875 0S0 3.477 0 7.875s3.477 7.875 7.875 7.875c1.739 0 3.375-.614 4.704-1.534l3.478 3.477c.204.205.409.307.818.307.614 0 1.125-.511 1.125-1.125 0-.204-.102-.511-.307-.818ZM2.25 7.875c0-3.068 2.557-5.625 5.625-5.625S13.5 4.807 13.5 7.875 10.943 13.5 7.875 13.5 2.25 10.943 2.25 7.875Z"/></symbol><symbol id="icon-telegram"><path fill-rule="evenodd" clip-rule="evenodd" d="M24.202 3.247c.178.15.264.382.226.612l-2.626 15.757a.657.657 0 0 1-1.012.438l-7.878-5.252a.657.657 0 0 1-.149-.957l2.61-3.263-4.359 2.907a.656.656 0 0 1-.658.04l-5.252-2.625a.656.656 0 0 1 .073-1.206L23.56 3.133a.657.657 0 0 1 .642.114Zm-17.135 7.17 3.536 1.768 7.561-5.041a.657.657 0 0 1 .877.956l-4.805 6.007 6.438 4.291 2.275-13.653-15.882 5.672Z"/></symbol><symbol id="icon-toy"><path d="M0 43.993 27.4 60V36.544L0 20.436v23.557Zm51.3-31.51V15c0 1.812-3.5 3.322-7.7 3.322-4.3 0-7.7-1.51-7.7-3.322v-4.127c.3 1.71 3.6 3.12 7.7 3.12 4.3 0 7.7-1.51 7.7-3.322S47.8 7.35 43.6 7.35h-1l-5-2.92V7.55c0 1.812-3.5 3.323-7.7 3.323-2.7 0-5-.604-6.4-1.51-.2-.202-.4-.403-.7-.605-.4-.402-.6-.805-.6-1.208V4.53L17.4 7.35h-1.1c-4.3 0-7.7 1.51-7.7 3.322s3.5 3.322 7.7 3.322c4.1 0 7.4-1.41 7.7-3.12V15c0 1.812-3.5 3.322-7.7 3.322-4.3 0-7.7-1.51-7.7-3.322v-2.416l-6 3.523 27.5 16.108 27.4-16.007-6.2-3.725ZM37.7 22.752c0 1.812-3.5 3.322-7.7 3.322-4.3 0-7.7-1.51-7.7-3.322v-4.128c.3 1.712 3.6 3.121 7.7 3.121s7.4-1.41 7.7-3.12v4.127Zm-5.1 13.993V60L60 43.993V20.738L32.6 36.745Zm-2.7-30.1c4.3 0 7.7-1.51 7.7-3.323C37.6 1.51 34.1 0 29.9 0c-4.3 0-7.7 1.51-7.7 3.322s3.4 3.322 7.7 3.322Z"/></symbol><symbol id="icon-vk"><g clip-path="url(#a)"><path d="M1.741 5.433c0-.855.515-1.316 1.545-1.383l3.97.025a.52.52 0 0 1 .533.377c.409 1.258.866 2.343 1.372 3.257.506.914 1.168 1.966 1.985 3.156.071.151.186.226.346.226.125 0 .222-.058.293-.175l.08-.277.027-4.35c0-.303-.075-.504-.226-.604-.151-.1-.431-.176-.84-.227-.32-.05-.48-.234-.48-.553 0-.067.01-.117.027-.15.373-1.09 1.44-1.635 3.198-1.635l1.492-.026c.675 0 1.234.16 1.678.478.444.319.666.822.666 1.51v5.708a.63.63 0 0 0 .347.126c.266 0 .497-.151.692-.453 1.954-2.582 3.011-4.309 3.17-5.18 0-.017.019-.06.054-.126.124-.252.329-.47.613-.654.284-.185.533-.31.746-.377a.555.555 0 0 1 .24-.05h4.13l.266.024c.355 0 .63.16.826.478.07.1.12.21.146.327.027.117.045.235.054.352.009.118.013.185.013.201v.176c-.124.688-.44 1.421-.946 2.2-.506.78-1.15 1.623-1.931 2.528-.782.906-1.27 1.5-1.466 1.786-.16.2-.24.385-.24.553 0 .134.071.285.213.453l3.89 4.627c.213.268.32.562.32.88 0 .386-.16.704-.48.956-.32.251-.701.394-1.145.427l-.453.025h-4.05a.861.861 0 0 0-.106.013.864.864 0 0 1-.107.012c-.39 0-.755-.159-1.092-.477-.125-.134-.96-1.124-2.505-2.968a1.385 1.385 0 0 0-.373-.327c-.07.268-.164.654-.28 1.157-.115.503-.2.864-.253 1.082l-.08.427c-.177.587-.55.939-1.119 1.056l-.373.025h-2.61c-1.475 0-2.945-.637-4.41-1.91-1.466-1.275-2.784-2.922-3.957-4.942-1.172-2.02-2.264-4.372-3.277-7.054a1.916 1.916 0 0 1-.133-.73Zm16.013 6.514c-.373 0-.71-.097-1.013-.29-.302-.192-.453-.457-.453-.792V5.081c0-.335-.089-.574-.266-.717-.178-.142-.489-.213-.933-.213l-1.518.05c-.764 0-1.341.126-1.732.377.781.352 1.172.922 1.172 1.71v4.426a1.5 1.5 0 0 1-.533 1.044 1.59 1.59 0 0 1-1.066.415c-.532 0-.94-.243-1.225-.73C8.8 9.466 7.77 7.589 7.097 5.81l-.24-.653-3.544-.026c-.231 0-.36.013-.386.038-.027.025-.04.097-.04.214 0 .15.017.31.053.478l.56 1.408c1.491 3.638 3.112 6.505 4.862 8.6 1.75 2.096 3.468 3.144 5.155 3.144h2.665c.106 0 .186-.03.24-.088.053-.059.097-.172.133-.34l.053-.25.506-2.214c.142-.302.267-.503.373-.603a.975.975 0 0 1 .693-.277c.426 0 .861.243 1.305.73l2.265 2.715c.142.218.293.327.453.327h4.396c.533 0 .8-.126.8-.377a.466.466 0 0 0-.08-.252l-3.864-4.551c-.302-.352-.453-.73-.453-1.132 0-.402.142-.788.427-1.157.23-.335.679-.893 1.345-1.672a37.716 37.716 0 0 0 1.745-2.188c.498-.679.826-1.295.986-1.848l.08-.327a.371.371 0 0 1-.027-.164.572.572 0 0 0-.026-.188h-4.183c-.267.1-.48.251-.64.452l-.16.478c-.444 1.157-1.607 2.942-3.49 5.357a1.892 1.892 0 0 1-1.305.503Z"/></g></symbol><symbol id="icon-youtube"><path d="m18.592 10.887-5.236-3.49a.654.654 0 0 0-1.015.545v6.982a.654.654 0 0 0 1.014.545l5.237-3.49a.654.654 0 0 0 0-1.092Zm-4.942 2.815V9.164l3.404 2.269-3.404 2.269Zm12.48-8.564a2.4 2.4 0 0 0-1.45-1.636c-3.72-1.43-9.688-1.407-9.939-1.407-.25 0-6.218-.022-9.938 1.407a2.4 2.4 0 0 0-1.451 1.636c-.284 1.07-.611 3.033-.611 6.295 0 3.261.327 5.225.61 6.294a2.4 2.4 0 0 0 1.452 1.637c3.72 1.429 9.687 1.407 9.938 1.407h.076c.753 0 6.317-.044 9.862-1.407a2.4 2.4 0 0 0 1.451-1.637c.284-1.069.611-3.033.611-6.294 0-3.262-.327-5.226-.61-6.295ZM24.865 17.4a1.091 1.091 0 0 1-.655.742c-3.49 1.342-9.404 1.32-9.469 1.32-.066 0-5.978.022-9.47-1.32a1.091 1.091 0 0 1-.654-.742c-.261-1.004-.567-2.847-.567-5.967 0-3.12.306-4.964.567-5.968a1.09 1.09 0 0 1 .655-.741c3.49-1.342 9.404-1.32 9.469-1.32.065 0 5.978-.022 9.47 1.32a1.092 1.092 0 0 1 .654.741c.261 1.004.567 2.848.567 5.968s-.306 4.963-.567 5.967Z"/></symbol></svg>